<?xml version="1.0" encoding="UTF-8"?>
<svg version="1.1" xmlns="http://www.w3.org/2000/svg" width="512" height="512">
<path d="M0 0 C0.92892059 0.00215515 1.85784119 0.0043103 2.81491089 0.00653076 C16.20319476 0.05639187 29.19389636 0.42016884 42.3125 3.3125 C43.28848145 3.51649414 44.26446289 3.72048828 45.27001953 3.93066406 C82.85036127 11.88068555 117.18763081 28.15612693 146.3125 53.3125 C147.22257812 54.09238281 148.13265625 54.87226562 149.0703125 55.67578125 C151.53316132 57.84166276 153.93245399 60.05594694 156.3125 62.3125 C156.80814453 62.78091309 157.30378906 63.24932617 157.81445312 63.73193359 C166.15983145 71.67423927 173.44456378 80.07355198 180.3125 89.3125 C180.7362793 89.87018066 181.16005859 90.42786133 181.59667969 91.00244141 C188.8546633 100.56166887 194.78999079 110.66592137 200.3125 121.3125 C200.70324707 122.06128418 201.09399414 122.81006836 201.49658203 123.58154297 C217.61931564 154.87304231 224.77166021 188.91551197 224.625 223.9375 C224.62284485 224.86447693 224.6206897 225.79145386 224.61846924 226.746521 C224.56732554 240.4592391 224.21882016 253.86105562 221.3125 267.3125 C221.00650879 268.75133545 221.00650879 268.75133545 220.69433594 270.21923828 C212.56806391 307.35523686 196.19266714 341.50740909 171.3125 370.3125 C170.53261719 371.22257812 169.75273437 372.13265625 168.94921875 373.0703125 C166.78333724 375.53316132 164.56905306 377.93245399 162.3125 380.3125 C161.84408691 380.80814453 161.37567383 381.30378906 160.89306641 381.81445312 C152.95076073 390.15983145 144.55144802 397.44456378 135.3125 404.3125 C134.75481934 404.7362793 134.19713867 405.16005859 133.62255859 405.59667969 C124.06333113 412.8546633 113.95907863 418.78999079 103.3125 424.3125 C102.18932373 424.89862061 102.18932373 424.89862061 101.04345703 425.49658203 C69.88649881 441.54999424 35.8848198 448.76915128 1 448.6875 C0.08074738 448.68662384 -0.83850525 448.68574768 -1.78561401 448.68484497 C-60.38674217 448.50141695 -114.46881788 425.72481064 -156.6875 385.3125 C-157.18491699 384.84231445 -157.68233398 384.37212891 -158.19482422 383.88769531 C-166.20088763 376.29055066 -173.09499721 368.15305847 -179.6875 359.3125 C-180.32534424 358.47380371 -180.32534424 358.47380371 -180.97607422 357.61816406 C-188.23220107 348.06049756 -194.16610829 337.95692424 -199.6875 327.3125 C-200.27362061 326.18932373 -200.27362061 326.18932373 -200.87158203 325.04345703 C-216.99431564 293.75195769 -224.14666021 259.70948803 -224 224.6875 C-223.99676727 223.29703461 -223.99676727 223.29703461 -223.99346924 221.878479 C-223.94232554 208.1657609 -223.59382016 194.76394438 -220.6875 181.3125 C-220.38150879 179.87366455 -220.38150879 179.87366455 -220.06933594 178.40576172 C-211.94306391 141.26976314 -195.56766714 107.11759091 -170.6875 78.3125 C-169.90761719 77.40242188 -169.12773437 76.49234375 -168.32421875 75.5546875 C-166.15833724 73.09183868 -163.94405306 70.69254601 -161.6875 68.3125 C-161.21908691 67.81685547 -160.75067383 67.32121094 -160.26806641 66.81054688 C-152.32576073 58.46516855 -143.92644802 51.18043622 -134.6875 44.3125 C-134.12981934 43.8887207 -133.57213867 43.46494141 -132.99755859 43.02832031 C-123.43833113 35.7703367 -113.33407863 29.83500921 -102.6875 24.3125 C-101.93871582 23.92175293 -101.18993164 23.53100586 -100.41845703 23.12841797 C-69.10308985 6.99338662 -35.04663884 -0.14646006 0 0 Z M-46.44140625 34.23046875 C-48.81437318 35.02145773 -51.1653922 35.74887545 -53.5703125 36.42578125 C-68.11705194 40.52169743 -81.25963354 46.44520281 -94.6875 53.3125 C-94.6875 53.9725 -94.6875 54.6325 -94.6875 55.3125 C-95.574375 55.580625 -96.46125 55.84875 -97.375 56.125 C-100.4784666 57.2375635 -102.99860685 58.41445778 -105.6875 60.3125 C-105.6875 60.9725 -105.6875 61.6325 -105.6875 62.3125 C-106.53570312 62.539375 -107.38390625 62.76625 -108.2578125 63 C-112.29894703 64.5464934 -115.19731751 66.64776273 -118.5625 69.3125 C-119.15546875 69.76367188 -119.7484375 70.21484375 -120.359375 70.6796875 C-121.845425 71.83702598 -123.27232464 73.06949731 -124.6875 74.3125 C-124.6875 74.9725 -124.6875 75.6325 -124.6875 76.3125 C-125.450625 76.580625 -126.21375 76.84875 -127 77.125 C-129.57738618 78.26384505 -130.95704864 79.12666671 -132.6875 81.3125 C-132.6875 81.9725 -132.6875 82.6325 -132.6875 83.3125 C-133.285625 83.580625 -133.88375 83.84875 -134.5 84.125 C-136.68597854 85.31167406 -138.10082594 86.40849113 -139.6875 88.3125 C-139.6875 88.9725 -139.6875 89.6325 -139.6875 90.3125 C-140.26886719 90.54839844 -140.85023438 90.78429687 -141.44921875 91.02734375 C-144.18971732 92.60085864 -145.57702682 94.37239335 -147.5 96.875 C-148.19738281 97.77734375 -148.89476562 98.6796875 -149.61328125 99.609375 C-150.29777344 100.50140625 -150.98226562 101.3934375 -151.6875 102.3125 C-152.27917969 103.03953125 -152.87085938 103.7665625 -153.48046875 104.515625 C-169.74726085 124.6164665 -182.47328133 150.36653265 -187.828125 175.6328125 C-188.6875 179.3125 -188.6875 179.3125 -189.68798828 181.71362305 C-199.01433738 205.96349753 -196.27896713 245.59465148 -188.44799805 269.94091797 C-187.70746791 272.25023088 -187.06010946 274.56557027 -186.44140625 276.91015625 C-186.24353516 277.64943359 -186.04566406 278.38871094 -185.84179688 279.15039062 C-185.44655141 280.63614833 -185.05593937 282.1231462 -184.66992188 283.61132812 C-183.18279234 289.12188902 -181.11205825 294.15279731 -178.6875 299.3125 C-178.33534424 300.08601807 -177.98318848 300.85953613 -177.62036133 301.65649414 C-172.15603993 313.89026376 -172.15603993 313.89026376 -165.15234375 325.26953125 C-163.35525383 327.77587266 -161.75152755 330.38006638 -160.125 333 C-157.54872484 337.06869888 -154.86707934 340.70324778 -151.6875 344.3125 C-150.965625 345.26125 -150.24375 346.21 -149.5 347.1875 C-148.901875 347.88875 -148.30375 348.59 -147.6875 349.3125 C-147.0275 349.3125 -146.3675 349.3125 -145.6875 349.3125 C-145.44 350.09625 -145.1925 350.88 -144.9375 351.6875 C-143.47825497 354.75191457 -142.63735044 354.92975761 -139.6875 356.3125 C-138.625 358.25 -138.625 358.25 -137.6875 360.3125 C-136.2708253 362.0636573 -136.2708253 362.0636573 -134.6875 363.3125 C-134.0275 363.3125 -133.3675 363.3125 -132.6875 363.3125 C-132.44 363.910625 -132.1925 364.50875 -131.9375 365.125 C-130.50677475 367.62876919 -129.1183418 368.79322388 -126.6875 370.3125 C-126.0275 370.3125 -125.3675 370.3125 -124.6875 370.3125 C-124.460625 370.910625 -124.23375 371.50875 -124 372.125 C-122.33140958 374.90598403 -120.5591168 375.8766916 -117.6875 377.3125 C-117.0275 377.3125 -116.3675 377.3125 -115.6875 377.3125 C-115.1925 378.7975 -115.1925 378.7975 -114.6875 380.3125 C-112.02666031 382.30646257 -109.07507675 384.3125 -105.6875 384.3125 C-105.1925 385.7975 -105.1925 385.7975 -104.6875 387.3125 C-102.89800372 388.54781167 -102.89800372 388.54781167 -100.75 389.5 C-100.03972656 389.84417969 -99.32945312 390.18835938 -98.59765625 390.54296875 C-96.72153704 391.43705962 -96.72153704 391.43705962 -94.6875 391.3125 C-94.6875 391.9725 -94.6875 392.6325 -94.6875 393.3125 C-79.53836394 400.66482831 -64.72944299 407.6684285 -48.24609375 411.453125 C-44.6875 412.3125 -44.6875 412.3125 -41.6015625 413.35546875 C-16.97017838 421.44486434 21.38859117 420.64126042 46.05859375 412.39453125 C49.22786178 411.340645 52.40224497 410.46650182 55.62939453 409.61401367 C69.74739216 405.85827387 82.34943449 399.94208807 95.3125 393.3125 C95.3125 392.6525 95.3125 391.9925 95.3125 391.3125 C96.17875 391.065 97.045 390.8175 97.9375 390.5625 C101.56372746 389.21945279 104.15463249 387.54158295 107.3125 385.3125 C108.49005859 384.55839844 108.49005859 384.55839844 109.69140625 383.7890625 C110.51511719 383.26054687 111.33882813 382.73203125 112.1875 382.1875 C112.96867187 381.68992187 113.74984375 381.19234375 114.5546875 380.6796875 C115.13476562 380.22851562 115.71484375 379.77734375 116.3125 379.3125 C116.3125 378.6525 116.3125 377.9925 116.3125 377.3125 C117.42625 376.9103125 117.42625 376.9103125 118.5625 376.5 C121.20311949 375.35973249 123.16802844 374.21869694 125.3125 372.3125 C125.3125 371.6525 125.3125 370.9925 125.3125 370.3125 C125.89 370.044375 126.4675 369.77625 127.0625 369.5 C129.36800043 368.28320811 131.33306192 367.00916121 133.3125 365.3125 C133.3125 364.6525 133.3125 363.9925 133.3125 363.3125 C133.910625 363.044375 134.50875 362.77625 135.125 362.5 C137.31097854 361.31332594 138.72582594 360.21650887 140.3125 358.3125 C140.3125 357.6525 140.3125 356.9925 140.3125 356.3125 C140.93125 356.085625 141.55 355.85875 142.1875 355.625 C144.53970631 354.46318028 144.53970631 354.46318028 145.3125 351.8125 C146.3125 349.3125 146.3125 349.3125 148.19140625 348.3828125 C153.98860204 345.45752401 158.32883809 336.93657068 161.3125 331.3125 C161.3125 330.6525 161.3125 329.9925 161.3125 329.3125 C161.9725 329.3125 162.6325 329.3125 163.3125 329.3125 C163.63863281 328.72082031 163.96476562 328.12914062 164.30078125 327.51953125 C168.0068424 320.81801065 168.0068424 320.81801065 169.9375 317.625 C173.2407714 312.3091888 173.2407714 312.3091888 174.3125 306.3125 C174.9725 306.3125 175.6325 306.3125 176.3125 306.3125 C177.1519882 304.21078133 177.98389656 302.10603375 178.8125 300 C179.50859375 298.24236328 179.50859375 298.24236328 180.21875 296.44921875 C181.47712513 293.39403552 181.47712513 293.39403552 181.3125 290.3125 C181.9725 290.3125 182.6325 290.3125 183.3125 290.3125 C184.77563206 285.13157338 186.21923037 279.94582082 187.64111328 274.75341797 C188.05933109 273.2329301 188.48148751 271.7135132 188.90966797 270.19580078 C195.706199 246.04031979 195.91789199 220.49798277 193 195.6875 C192.88245361 194.6876709 192.76490723 193.6878418 192.64379883 192.65771484 C191.80094261 186.29509285 190.26375529 180.41422897 188.3125 174.3125 C187.84217086 172.67678359 187.37982255 171.03874972 186.92578125 169.3984375 C186.70986328 168.61855469 186.49394531 167.83867187 186.27148438 167.03515625 C186.05814453 166.26042969 185.84480469 165.48570312 185.625 164.6875 C185.40005859 163.87410156 185.17511719 163.06070313 184.94335938 162.22265625 C184.39877182 160.25287147 183.85549233 158.28272512 183.3125 156.3125 C182.6525 156.3125 181.9925 156.3125 181.3125 156.3125 C181.20292969 155.74402344 181.09335937 155.17554688 180.98046875 154.58984375 C179.93311834 149.48933242 178.51978247 145.028058 176.3125 140.3125 C175.6525 140.3125 174.9925 140.3125 174.3125 140.3125 C174.13074219 139.72082031 173.94898438 139.12914062 173.76171875 138.51953125 C173.51035156 137.72933594 173.25898438 136.93914062 173 136.125 C172.75636719 135.34769531 172.51273437 134.57039063 172.26171875 133.76953125 C171.21270271 131.05417699 169.86142596 128.77459873 168.3125 126.3125 C167.62220703 125.14460938 167.62220703 125.14460938 166.91796875 123.953125 C162.44698259 116.41526403 157.8400555 109.12360771 152.3125 102.3125 C151.28382813 101.01892578 151.28382813 101.01892578 150.234375 99.69921875 C143.30086529 91.01041852 143.30086529 91.01041852 135.3125 83.3125 C134.6525 83.3125 133.9925 83.3125 133.3125 83.3125 C132.94125 82.4153125 132.94125 82.4153125 132.5625 81.5 C131.13177475 78.99623081 129.7433418 77.83177612 127.3125 76.3125 C126.6525 76.3125 125.9925 76.3125 125.3125 76.3125 C124.9721875 75.4153125 124.9721875 75.4153125 124.625 74.5 C122.95640958 71.71901597 121.1841168 70.7483084 118.3125 69.3125 C117.6525 69.3125 116.9925 69.3125 116.3125 69.3125 C115.9825 68.3225 115.6525 67.3325 115.3125 66.3125 C112.65166031 64.31853743 109.70007675 62.3125 106.3125 62.3125 C106.3125 61.6525 106.3125 60.9925 106.3125 60.3125 C102.49931001 57.68516239 98.36712714 55.54548306 94.3125 53.3125 C93.68166504 52.9628418 93.05083008 52.61318359 92.40087891 52.25292969 C80.51898813 45.12540311 80.51898813 45.12540311 67.3125 42.3125 C67.3125 41.6525 67.3125 40.9925 67.3125 40.3125 C64.58568889 39.47070605 61.85648557 38.63886931 59.125 37.8125 C57.97161133 37.45478516 57.97161133 37.45478516 56.79492188 37.08984375 C52.86893872 35.91036383 49.46201179 34.9798738 45.3125 35.3125 C45.3125 34.6525 45.3125 33.9925 45.3125 33.3125 C16.37689372 28.09621723 -18.00322551 24.75107517 -46.44140625 34.23046875 Z " fill="#B2122A" transform="translate(255.6875,31.6875)"/>
<path d="M0 0 C1.39907226 0.39460135 2.8018068 0.77633853 4.20703125 1.1484375 C18.84795078 5.04152652 18.84795078 5.04152652 25.09765625 8.0859375 C28.30844584 9.62869882 31.65443852 10.78343219 35 12 C35 12.66 35 13.32 35 14 C35.84175781 14.2475 36.68351562 14.495 37.55078125 14.75 C41.38491133 16.13949221 44.68609455 17.93727235 48.1875 20 C49.11079102 20.53367187 49.11079102 20.53367187 50.05273438 21.078125 C52.7574968 22.64882127 55.39679546 24.26453031 58 26 C58 26.66 58 27.32 58 28 C58.721875 28.268125 59.44375 28.53625 60.1875 28.8125 C65.51597743 31.06230158 68.97160237 33.8779187 73 38 C74.32477362 39.17637739 75.65874751 40.34244626 77 41.5 C85.30544918 48.72280217 93.04818179 56.7151636 99 66 C99.66 66.33 100.32 66.66 101 67 C102.0703125 68.55859375 102.0703125 68.55859375 103.125 70.4375 C103.65480469 71.36369141 103.65480469 71.36369141 104.1953125 72.30859375 C105 74 105 74 105 76 C105.66 76 106.32 76 107 76 C107.83848804 77.45537568 108.67063934 78.91440373 109.5 80.375 C110.19609375 81.59316406 110.19609375 81.59316406 110.90625 82.8359375 C112 85 112 85 112 87 C112.66 87 113.32 87 114 87 C115.44641139 89.97491763 116.8804181 92.95566126 118.3125 95.9375 C118.91868164 97.18370117 118.91868164 97.18370117 119.53710938 98.45507812 C126 111.95884146 126 111.95884146 126 119 C126.66 119 127.32 119 128 119 C128.14099121 119.59425781 128.28198242 120.18851562 128.42724609 120.80078125 C129.0760067 123.5339709 129.72549874 126.26698626 130.375 129 C130.59671875 129.93457031 130.8184375 130.86914062 131.046875 131.83203125 C131.26601563 132.75371094 131.48515625 133.67539063 131.7109375 134.625 C131.92806396 135.54804932 132.14519043 136.47109863 132.36889648 137.42211914 C132.74539636 138.96001555 133.14359751 140.49323143 133.58618164 142.01342773 C135.39012317 148.27823426 135.49766649 154.57578241 135.6875 161.0625 C135.72584961 162.29170166 135.76419922 163.52090332 135.80371094 164.78735352 C136.22089895 180.78816592 136.3333189 196.49425456 132 212 C131.24732309 215.09872789 130.53138028 218.2057844 129.8125 221.3125 C129.46558682 222.78793533 129.11799566 224.26321152 128.76953125 225.73828125 C128.51558594 226.81464844 128.26164062 227.89101563 128 229 C127.34 229 126.68 229 126 229 C125.62875 230.918125 125.62875 230.918125 125.25 232.875 C122.15216752 246.53941176 114.66496054 259.39236008 107 271 C106.22462891 272.22589844 106.22462891 272.22589844 105.43359375 273.4765625 C104.89863281 274.30929687 104.36367188 275.14203125 103.8125 276 C103.32394531 276.763125 102.83539063 277.52625 102.33203125 278.3125 C101.67267578 279.1478125 101.67267578 279.1478125 101 280 C100.34 280 99.68 280 99 280 C98.75894531 280.721875 98.51789063 281.44375 98.26953125 282.1875 C96.82453626 285.38871967 95.07488504 287.43205643 92.6875 290 C91.883125 290.87011719 91.07875 291.74023438 90.25 292.63671875 C87.87355367 295.13281255 85.43687952 297.56312048 83 300 C82.4328125 300.75796875 81.865625 301.5159375 81.28125 302.296875 C78.58078885 305.49673651 75.62288739 307.89934324 72.3125 310.4375 C71.6939917 310.91832031 71.0754834 311.39914062 70.43823242 311.89453125 C66.3376184 315.05418699 62.15750545 318.02932737 57.76953125 320.78125 C55.96000702 321.94595001 55.96000702 321.94595001 54.5078125 323.51171875 C49.53574968 328.41937661 36.82804128 336 30 336 C30 336.66 30 337.32 30 338 C27.56427941 338.83887056 25.12666783 339.67126529 22.6875 340.5 C21.99720703 340.73847656 21.30691406 340.97695313 20.59570312 341.22265625 C17.61068511 342.23208263 15.17341086 343 12 343 C12 343.66 12 344.32 12 345 C10.69796631 345.26478149 10.69796631 345.26478149 9.36962891 345.53491211 C6.15252615 346.19053532 2.93596046 346.84867815 -0.28027344 347.50854492 C-1.67296969 347.79373925 -3.06587295 348.07792462 -4.45898438 348.36108398 C-6.46018741 348.76802377 -8.46062044 349.17857404 -10.4609375 349.58984375 C-11.66540527 349.83597412 -12.86987305 350.08210449 -14.11083984 350.33569336 C-16.92127192 350.86254659 -16.92127192 350.86254659 -19 352 C-26.93239731 353.15291752 -34.93976193 353.15327721 -42.9375 353.125 C-44.02740234 353.12886719 -45.11730469 353.13273437 -46.24023438 353.13671875 C-56.05966747 353.12504979 -65.57638362 352.96922885 -75 350 C-78.9672204 349.07001375 -82.95265679 348.22589141 -86.9375 347.375 C-88.00291016 347.14554687 -89.06832031 346.91609375 -90.16601562 346.6796875 C-92.7769026 346.11770286 -95.38823048 345.55786606 -98 345 C-98 344.34 -98 343.68 -98 343 C-99.918125 342.62875 -99.918125 342.62875 -101.875 342.25 C-111.78127917 340.02803084 -120.86007026 335.29777261 -130 331 C-130 330.34 -130 329.68 -130 329 C-130.70125 328.731875 -131.4025 328.46375 -132.125 328.1875 C-135.1649824 326.9318551 -138.0727774 325.49764877 -141 324 C-141 323.34 -141 322.68 -141 322 C-141.721875 321.731875 -142.44375 321.46375 -143.1875 321.1875 C-148.0272302 319.14405836 -151.31213784 316.68786216 -155 313 C-155.804375 312.525625 -156.60875 312.05125 -157.4375 311.5625 C-160.45211508 309.72432007 -162.56778619 307.5538245 -165 305 C-166.16982422 303.83597656 -166.16982422 303.83597656 -167.36328125 302.6484375 C-178.83084222 291.12990959 -189.90887509 278.1594686 -198 264 C-198.42667969 263.27296875 -198.85335937 262.5459375 -199.29296875 261.796875 C-199.75316406 260.99765625 -200.21335937 260.1984375 -200.6875 259.375 C-201.12449219 258.61960937 -201.56148437 257.86421875 -202.01171875 257.0859375 C-203 255 -203 255 -203 252 C-203.66 252 -204.32 252 -205 252 C-205.39832031 250.92621094 -205.79664063 249.85242188 -206.20703125 248.74609375 C-206.74209782 247.30986242 -207.27725914 245.87366638 -207.8125 244.4375 C-208.07353516 243.73302734 -208.33457031 243.02855469 -208.60351562 242.30273438 C-209.84817608 238.96827366 -211.13378505 235.69648764 -212.5703125 232.4375 C-214.06307238 228.84835057 -215.09530113 225.32556927 -216.0625 221.5625 C-216.23241455 220.90507812 -216.4023291 220.24765625 -216.57739258 219.5703125 C-217.0557854 217.71461688 -217.52809825 215.8573569 -218 214 C-218.21914062 213.17371094 -218.43828125 212.34742188 -218.6640625 211.49609375 C-220.77757849 203.43634249 -221.15911198 195.87344615 -221.16796875 187.58203125 C-221.17129715 186.48839767 -221.17462555 185.3947641 -221.17805481 184.26799011 C-221.18310349 181.95918191 -221.18546377 179.65036645 -221.18530273 177.34155273 C-221.18748194 173.84150906 -221.20563992 170.34178458 -221.22460938 166.84179688 C-221.22754532 164.58854273 -221.22952877 162.33528711 -221.23046875 160.08203125 C-221.24124702 158.53452934 -221.24124702 158.53452934 -221.25224304 156.95576477 C-221.22312133 147.51341865 -220.07787679 138.48008187 -216.86328125 129.578125 C-214.93363789 123.81538918 -213.52618294 117.88006524 -212 112 C-211.34 112 -210.68 112 -210 112 C-209.88011719 111.29101562 -209.76023437 110.58203125 -209.63671875 109.8515625 C-205.90208785 93.1259149 -194.61173277 77.11386765 -184 64 C-183.35675781 63.17113281 -182.71351563 62.34226562 -182.05078125 61.48828125 C-177.60239918 55.85585664 -172.86288794 50.6567408 -167.8125 45.5625 C-166.93936157 44.67558472 -166.93936157 44.67558472 -166.04858398 43.77075195 C-162.58359431 40.33040308 -159.11688192 37.61767059 -155 35 C-154.319375 34.319375 -153.63875 33.63875 -152.9375 32.9375 C-150.80735812 30.80735812 -148.58604734 29.52510484 -146 28 C-145.54625 27.525625 -145.0925 27.05125 -144.625 26.5625 C-141.85636922 23.90035502 -137.89772819 21 -134 21 C-134 20.34 -134 19.68 -134 19 C-132.21046815 18.16209211 -130.41830305 17.32980604 -128.625 16.5 C-127.62726563 16.0359375 -126.62953125 15.571875 -125.6015625 15.09375 C-123 14 -123 14 -121 14 C-121 13.34 -121 12.68 -121 12 C-118.89828133 11.1605118 -116.79353375 10.32860344 -114.6875 9.5 C-113.51574219 9.0359375 -112.34398437 8.571875 -111.13671875 8.09375 C-108 7 -108 7 -105 7 C-105 6.34 -105 5.68 -105 5 C-104.33991943 4.82871582 -103.67983887 4.65743164 -102.99975586 4.48095703 C-99.97877571 3.69651386 -96.95813598 2.91076738 -93.9375 2.125 C-92.89916016 1.85558594 -91.86082031 1.58617188 -90.79101562 1.30859375 C-86.57776999 0.21181235 -82.37780465 -0.88805788 -78.203125 -2.125 C-55.11533086 -8.43190962 -22.53258672 -8.17149288 0 0 Z M-148 67 C-149.27810547 68.18335938 -149.27810547 68.18335938 -150.58203125 69.390625 C-161.62814881 79.89748328 -169.96164492 92.55224924 -177 106 C-177.60585937 107.15757812 -178.21171875 108.31515625 -178.8359375 109.5078125 C-196.83972507 145.27182991 -197.75344183 186.50527607 -185.69140625 224.20703125 C-179.7213035 241.71401246 -170.29231511 259.95706839 -157 273 C-156.18321777 272.15703369 -155.36643555 271.31406738 -154.52490234 270.44555664 C-151.48500794 267.31501579 -148.42847522 264.20117188 -145.36669922 261.09204102 C-144.04505714 259.74528807 -142.72794156 258.39407718 -141.41552734 257.03833008 C-139.52579603 255.0878012 -137.62024687 253.1540013 -135.7109375 251.22265625 C-135.12943939 250.61535172 -134.54794128 250.00804718 -133.94882202 249.38233948 C-130.47315701 245.90433106 -128.14763039 244.11261866 -123 244 C-120.1875 244.8125 -120.1875 244.8125 -118 246 C-117.67 246.66 -117.34 247.32 -117 248 C-116.34 248 -115.68 248 -115 248 C-115 248.66 -115 249.32 -115 250 C-113.66666667 251.66666667 -113.66666667 251.66666667 -112 253 C-111.34 253 -110.68 253 -110 253 C-109.63763196 254.6565396 -109.33758576 256.32675111 -109.0625 258 C-108.80146484 259.3921875 -108.80146484 259.3921875 -108.53515625 260.8125 C-109.27237229 265.86769573 -112.48568217 268.46361849 -116 272 C-116.80945068 272.82886719 -117.61890137 273.65773438 -118.45288086 274.51171875 C-121.09570485 277.19391396 -123.76243969 279.84997625 -126.4375 282.5 C-127.35982422 283.4178125 -128.28214844 284.335625 -129.23242188 285.28125 C-131.48599899 287.52315055 -133.74189075 289.762666 -136 292 C-132.78256215 301.65231354 -114.59255901 308.2774824 -105.6887207 312.74707031 C-69.78415676 330.12663848 -28.22684729 330.75134363 9.18432617 318.015625 C30.12819165 310.42745887 48.07173443 298.37288672 64 283 C64.85207031 282.21109375 65.70414062 281.4221875 66.58203125 280.609375 C77.62814881 270.10251672 85.96164492 257.44775076 93 244 C93.60585938 242.84242188 94.21171875 241.68484375 94.8359375 240.4921875 C112.83972507 204.72817009 113.75344183 163.49472393 101.69140625 125.79296875 C96.30726148 110.00803293 87.91982194 95.34623386 78 82 C75.15301696 83.28960671 73.14198224 84.62381942 70.97900391 86.87329102 C70.41807037 87.45051407 69.85713684 88.02773712 69.27920532 88.62245178 C68.68433319 89.24333176 68.08946106 89.86421173 67.4765625 90.50390625 C66.19574841 91.81487915 64.91448447 93.12541267 63.6328125 94.43554688 C61.62414007 96.50001576 59.61961171 98.56810317 57.62304688 100.64428711 C55.68956429 102.65039435 53.74066437 104.64044348 51.7890625 106.62890625 C51.19823883 107.25181046 50.60741516 107.87471466 49.99868774 108.51649475 C46.51342789 112.0437386 44.19935813 113.9035789 39 114 C36.1875 113.1875 36.1875 113.1875 34 112 C33.67 111.34 33.34 110.68 33 110 C32.34 110 31.68 110 31 110 C31 109.34 31 108.68 31 108 C29.66666667 106.33333333 29.66666667 106.33333333 28 105 C27.34 105 26.68 105 26 105 C23.98066616 95.76875957 23.98066616 95.76875957 26.38671875 91.59375 C28.16856584 89.59150673 29.99953741 87.78192466 32 86 C33.70393562 84.48469439 33.70393562 84.48469439 35 83 C35 82.34 35 81.68 35 81 C35.598125 80.731875 36.19625 80.46375 36.8125 80.1875 C38.99847854 79.00082594 40.41332594 77.90400887 42 76 C42 75.34 42 74.68 42 74 C42.598125 73.731875 43.19625 73.46375 43.8125 73.1875 C45.99847854 72.00082594 47.41332594 70.90400887 49 69 C49 68.34 49 67.68 49 67 C49.598125 66.731875 50.19625 66.46375 50.8125 66.1875 C53.01819033 64.99012525 54.43583187 63.95521016 56 62 C56 61.01 56 60.02 56 59 C53.83221847 57.12064878 51.70790851 55.46440841 49.375 53.8125 C48.69566406 53.32491211 48.01632812 52.83732422 47.31640625 52.33496094 C40.79732654 47.72987819 34.07650274 43.70373751 27 40 C25.84242188 39.39414063 24.68484375 38.78828125 23.4921875 38.1640625 C-33.62748083 9.40973205 -102.83953719 23.41416979 -148 67 Z " fill="#B2132B" transform="translate(298,80)"/>
<path d="M0 0 C15.03812961 -0.0701019 30.07624655 -0.12299395 45.11450481 -0.15543652 C52.09714408 -0.17090102 59.07968178 -0.19198245 66.06225586 -0.22631836 C72.79901847 -0.25942972 79.53565369 -0.27684641 86.27250099 -0.28463173 C88.84455846 -0.29018092 91.41661006 -0.30101692 93.98862267 -0.31719017 C97.58718799 -0.33892153 101.18531531 -0.34196865 104.78393555 -0.34057617 C105.85064484 -0.351362 106.91735413 -0.36214783 108.01638794 -0.3732605 C114.69956522 -0.34522006 118.18087139 0.4941079 123.25 5 C125.82278798 7.94032911 126.12651312 10.44562102 126.16113281 14.20849609 C126.17074036 15.05302338 126.1803479 15.89755066 126.19024658 16.76766968 C126.19449646 17.67707306 126.19874634 18.58647644 126.203125 19.5234375 C126.20882507 20.46176422 126.21452515 21.40009094 126.22039795 22.36685181 C126.22984394 24.35230381 126.23638034 26.33777146 126.24023438 28.32324219 C126.24994048 31.35639864 126.28096786 34.38887756 126.3125 37.421875 C126.31903023 39.35155848 126.32428062 41.2812468 126.328125 43.2109375 C126.3404718 44.11629242 126.3528186 45.02164734 126.36553955 45.95443726 C126.34346029 52.21405586 125.21859034 55.50408587 121 60.25 C116.90376227 63.83420802 112.09519 63.18483806 106.94555664 63.23706055 C106.01829773 63.25017273 105.09103882 63.26328491 104.13568115 63.27679443 C101.06054848 63.31867173 97.98539017 63.35315024 94.91015625 63.38671875 C92.76842613 63.41238417 90.62669742 63.43816813 88.48497009 63.46406555 C83.98667545 63.51708849 79.48835619 63.56599119 74.98999023 63.61254883 C69.25043627 63.67265417 63.51116366 63.74693185 57.77182865 63.82492352 C53.34241143 63.88281502 48.9129259 63.93097513 44.48336601 63.976511 C42.36922573 63.99978468 40.25512021 64.02649749 38.14106941 64.05682945 C9.05334507 64.46384809 9.05334507 64.46384809 3.3125 59.0625 C-2.28957383 51.64353736 0 48.52845034 0 37 C49.005 36.505 49.005 36.505 99 36 C99.33 34.35 99.66 32.7 100 31 C100.33333333 29.33333333 100.66666667 27.66666667 101 26 C100.01 26.99 99.02 27.98 98 29 C96.515 28.505 96.515 28.505 95 28 C95.495 27.505 95.495 27.505 96 27 C95.12906708 27.00222061 94.25813416 27.00444122 93.36080933 27.00672913 C85.09469896 27.02688709 76.82859701 27.04205244 68.56246758 27.05181217 C64.31425795 27.05699864 60.06606889 27.06401791 55.81787109 27.07543945 C51.70704068 27.08642068 47.59622986 27.09230861 43.48538589 27.09487724 C41.92836321 27.09670436 40.37134142 27.10027118 38.81432724 27.10573006 C9.72895172 27.20351264 9.72895172 27.20351264 2.75 21 C-0.69465627 17.06324997 -0.11856753 12.75075525 -0.0625 7.8125 C-0.05798828 7.06291016 -0.05347656 6.31332031 -0.04882812 5.54101562 C-0.03706354 3.69397617 -0.01912865 1.84697787 0 0 Z " fill="#B2122A" transform="translate(193,243)"/>
<path d="M0 0 C0.08132187 2.56314499 0.14064175 5.12368418 0.1875 7.6875 C0.21263672 8.40873047 0.23777344 9.12996094 0.26367188 9.87304688 C0.345931 15.87796298 -1.10235704 18.86515166 -5 23.25 C-8.12268642 25.98235062 -10.77838477 26.12456391 -14.76457214 26.12025452 C-15.74473801 26.12162918 -16.72490387 26.12300385 -17.73477173 26.12442017 C-18.80867157 26.12082489 -19.88257141 26.11722961 -20.98901367 26.11352539 C-22.12086594 26.11367142 -23.2527182 26.11381744 -24.41886902 26.1139679 C-28.16858827 26.11326995 -31.91825815 26.10548304 -35.66796875 26.09765625 C-38.26442945 26.09579165 -40.86089051 26.09436795 -43.45735168 26.09336853 C-49.59838989 26.08993752 -55.73940765 26.08205206 -61.88043815 26.07201904 C-68.8719079 26.06084438 -75.86337849 26.05534404 -82.85485494 26.05032361 C-97.23657952 26.03986909 -111.61828913 26.02227808 -126 26 C-126.08132187 23.43685501 -126.14064175 20.87631582 -126.1875 18.3125 C-126.21263672 17.59126953 -126.23777344 16.87003906 -126.26367188 16.12695312 C-126.345931 10.12203702 -124.89764296 7.13484834 -121 2.75 C-117.46714724 -0.34124616 -114.15427532 -0.14900089 -109.640625 -0.22119141 C-108.99647927 -0.2326718 -108.35233355 -0.2441522 -107.68866825 -0.25598049 C-105.54249417 -0.29275599 -103.39628989 -0.32238188 -101.25 -0.3515625 C-99.73302361 -0.37513486 -98.21605079 -0.398938 -96.69908142 -0.42295837 C-92.6378501 -0.48531057 -88.57655129 -0.5400762 -84.51517868 -0.59233475 C-82.00848146 -0.62488985 -79.50181527 -0.65930448 -76.99514771 -0.69406128 C-51.31071864 -1.04435991 -25.67226588 -0.99111173 0 0 Z " fill="#B2122A" transform="translate(319,206)"/>
<path d="M0 0 C2.31 0 4.62 0 7 0 C6.34 0.66 5.68 1.32 5 2 C2.375 1.625 2.375 1.625 0 1 C0 0.67 0 0.34 0 0 Z " fill="#B2122A" transform="translate(280,271)"/>
<path d="M0 0 C2 1 2 1 2 1 Z " fill="#B2122A" transform="translate(288,278)"/>
<path d="M0 0 C2 1 2 1 2 1 Z " fill="#B2122A" transform="translate(285,278)"/>
<path d="" fill="#B2122A" transform="translate(0,0)"/>
<path d="" fill="#B2122A" transform="translate(0,0)"/>
</svg>
